{"title":"The Way, Way Back 2013 DVDrip English Klam","uid":9075334,"size":2103324523,"categoryP":"video","categoryS":"movies","magnet":"?xt=urn:btih:16d32fa69d4b6da7303a95a2da499d4d4c853c4c&amp;dn=The+Way%2C+Way+Back+2013+DVDrip+English+Klam&amp;tr=udp%3A%2F%2Ftracker.openbittorrent.com%3A80&amp;tr=udp%3A%2F%2Fopen.demonii.com%3A1337&amp;tr=udp%3A%2F%2Ftracker.coppersurfer.tk%3A6969&amp;tr=udp%3A%2F%2Fexodus.desync.com%3A6969","seeders":1,"leechers":0,"uploader":"Klambake","files":-1,"time":1382276020,"description":"With: Liam James, Steve Carell and Sam Rockwell\n\nDe tiener Duncan (Liam James) gaat met zijn moeder, zijn veeleisende stiefvader en diens dochter naar een vakantiehuisje aan het strand om de zomer door te brengen. Iedereen vermaakt zich al snel, alleen Duncan verveelt zich stierlijk en past totaal niet tussen de tienermeisjes en de vaak aangeschoten volwassenen. Dan komt hij plotseling terecht bij een groot waterpretpark, waar hij kennismaakt met de welbespraakte manager Owen (Sam Rockwell), waarmee hij gedurende de zomervakantie een bijzondere vriendschap opbouwt.\n\nShy 14-year-old Duncan goes on summer vacation with his mother, her overbearing boyfriend, and her boyfriend's daughter. Having a rough time fitting in, Duncan finds an unexpected friend in Owen, manager of the Water Wizz water park. \n &lt;a href=&quot;\nhttp://www.imdb.com/title/tt1727388&quot; rel=&quot;nofollow&quot; target=&quot;_NEW&quot;&gt;\nhttp://www.imdb.com/title/tt1727388&lt;/a&gt;\t\n\n------------------------ Dutch Friends ------------------------\n---------------------------------------------------------------\n- Bezoek ook eens mijn vrienden op: http://www.Film-Test.nl --\n----- voor mijn Nederlandse Sync. ondertitels ---- en meer ----\n------- http://www.Film-Test.nl ---- Over Films en meer -------\n---------------------------------------------------------------\n\nGeneral:\n\nComplete name                    : The Way, Way BackThe Way, Way Back.avi\nFormat                           : AVI\nFormat/Info                      : Audio Video Interleave\nFile size                        : 1.96 GiB\nDuration                         : 1h 43mn\nOverall bit rate                 : 2 711 Kbps\n\nVideo:\n\nFormat                           : MPEG-4 Visual\nFormat profile                   : Simple@L3\nFormat settings, BVOP            : No\nFormat settings, QPel            : No\nFormat settings, GMC             : No warppoints\nFormat settings, Matrix          : Default (H.263)\nCodec ID                         : XVID\nCodec ID/Hint                    : XviD\nDuration                         : 1h 43mn\nBit rate                         : 2 252 Kbps\nWidth                            : 704 pixels\nHeight                           : 396 pixels\nDisplay aspect ratio             : 16:9\nFrame rate                       : 23.976 fps\nColor space                      : YUV\nChroma subsampling               : 4:2:0\nBit depth                        : 8 bits\nScan type                        : Progressive\nBits/(Pixel*Frame)               : 0.337\nStream size                      : 1.63 GiB (83%)\nWriting library                  : XviD 1.1.2 (UTC 2006-11-01)\n\nAudio:\n\nFormat                           : AC-3\nFormat/Info                      : Audio Coding 3\nMode extension                   : CM (complete main)\nCodec ID                         : 2000\nDuration                         : 1h 43mn\nBit rate mode                    : Constant\nBit rate                         : 448 Kbps\nChannel(s)                       : 6 channels\nChannel positions                : Front: L C R, Side: L R, LFE\nSampling rate                    : 48.0 KHz\nBit depth                        : 16 bits\nStream size                      : 331 MiB (17%)\nAlignment                        : Aligned on interleaves\nInterleave, duration             : 32 ms (0.77 video frame)\nInterleave, preload duration     : 32 ms","torrent":{"xt":"urn:btih:16d32fa69d4b6da7303a95a2da499d4d4c853c4c","amp;dn":"The+Way%2C+Way+Back+2013+DVDrip+English+Klam","amp;tr":["udp%3A%2F%2Ftracker.openbittorrent.com%3A80","udp%3A%2F%2Fopen.demonii.com%3A1337","udp%3A%2F%2Ftracker.coppersurfer.tk%3A6969","udp%3A%2F%2Fexodus.desync.com%3A6969"],"infoHash":"16d32fa69d4b6da7303a95a2da499d4d4c853c4c","infoHashBuffer":{"type":"Buffer","data":[22,211,47,166,157,75,109,167,48,58,149,162,218,73,157,77,76,133,60,76]},"announce":[],"urlList":[]}}